<svg xmlns="http://www.w3.org/2000/svg" height="48" viewBox="0 96 960 960" width="48"><path d="M561 530h251V353H561v177Zm126-36-102-77v-40l101 77 102-77v40l-101 77ZM95 942q-37.587 0-64.794-26.912Q3 888.175 3 851V300q0-37.175 27.206-64.088Q57.413 209 95 209h770q36.125 0 63.562 26.912Q956 262.825 956 300v551q0 37.175-27.438 64.088Q901.125 942 865 942H95Zm253-289q51.167 0 86.583-36.5Q470 580 470 528.5q0-50.5-35.382-86.5-35.383-36-87-36Q295 406 259 441.917 223 477.833 223 529q0 51 35.792 87.5Q294.583 653 348 653ZM90 863h517q-45-65-110.294-105.5-65.293-40.5-146.5-40.5Q271 717 202 757.5 133 798 90 863Z"/></svg>