<svg xmlns="http://www.w3.org/2000/svg" height="48" viewBox="0 96 960 960" width="48"><path d="M480.297 997Q392 997 315.5 965T181 874.5Q123 816 91 739.051q-32-76.948-32-165.52Q59 485 91 408.5t90-133q58-56.5 134.449-89 76.448-32.5 165.02-32.5Q569 154 645 186.5t134 89q58 56.5 90.5 133.138T902 574q0 88.404-32.5 165.202T779 874.5Q721 933 644.774 965t-164.477 32ZM479 909q33-34 55.5-79.5T573 719H388q13 61 36.094 108.158T479 909Zm-81-12q-25-36-41.875-79.326Q339.25 774.349 327 719H181q36 68.806 84.5 109.403Q314 869 398 897Zm163-1q71-20 126.5-67T779 719H635.142Q622 773 604 816.5T561 896ZM162.035 663H317q-4-27-4.5-48t-.5-41q0-25 1-43.5t5-42.5H162.035Q156 512 153 530t-3 44q0 25 3 45t9.035 44Zm214.996 0H584q3-31 3.5-50t.5-39q0-20-.5-37.5t-3.531-48.5H377q-4 31-5 48.5t-1 37.5q0 20 1 39t5.031 50ZM643 663h155q4-24 7.5-44t3.5-45q0-26-3.5-44t-7.5-42H644q1 37 2 53.675 1 16.675 1 32.325 0 21-1.5 40t-2.5 49Zm-8.858-232H779q-34-66-89.5-113T560 254q25 37 43 79t31.142 98ZM388 431h186q-9-49.721-34.5-100.361Q514 280 479 245q-29 25-50.5 68.5T388 431Zm-207 0h146.816Q339 378 355 336.5t42-81.5q-75 17-129 62t-87 114Z"/></svg>