<svg xmlns="http://www.w3.org/2000/svg" height="48" viewBox="0 96 960 960" width="48"><path d="M745 623V499H621v-69h124V307h69v123h123v69H814v124h-69Zm-383.044-60q-76.826 0-124.391-48.065Q190 466.87 190 390.704q0-76.167 47.406-123.935Q284.812 219 361.637 219q76.825 0 125.094 47.656Q535 314.312 535 391.204q0 75.666-48.109 123.731Q438.781 563 361.956 563ZM20 926V810q0-42.887 21.695-75.661Q63.391 701.565 102 684q76-35 136.22-48.5Q298.441 622 361.262 622 426 622 486 636t136 48q38.609 17.42 60.805 49.671Q705 765.922 705 809.773V926H20Z"/></svg>